# xmcd CD database file
#
# Track frame offsets:
#	150
#	24108
#	53315
#	86156
#	105957
#	132450
#	163456
#	202622
#	229688
#	266322
#
# Disc length: 3749 seconds
#
# Revision: 0
# Processed by: cddbd v1.5.2PL0 Copyright (c) Steve Scherf et al.
# Submitted via: CDex 1.51
#
DISCID=6f0ea30a
DTITLE=Ohne 4 gespielt drei - A 40
DYEAR=2009
DGENRE=Jazz
TTITLE0=A 40
TTITLE1=This is Novi Sad
TTITLE2=Free floating
TTITLE3=Parkhausromantiker
TTITLE4=Dance of a hypochonder
TTITLE5=Schimanski
TTITLE6=Groove Ruf
TTITLE7=Feinstaub
TTITLE8=FAQ
TTITLE9=Katernberg Katharsis
EXTD=YEAR: 2009
EXTT0=
EXTT1=
EXTT2=
EXTT3=
EXTT4=
EXTT5=
EXTT6=
EXTT7=
EXTT8=
EXTT9=
PLAYORDER=
